PathFileType	4	(X/Y/Z)	Kaydara	
DataRate	CameraRate	NumFrames	NumMarkers	Units	OrigDataRate	OrigDataStartFrame	OrigNumFrames	
60.00	60.00	4	74	mm	60.00	875	204	
Frame#	Time	Z_lasi			Z_rasi			Z_rpsi			Z_lpsi			Z_fneck			Z_bneck			Z_fhead			Z_rhead			Z_lhead			Z_rshld			Z_relbtop			Z_relbext			Z_relblow			Z_rwrext			Z_rwrtop			Z_rwrlow			Z_lshld			Z_lelbext			Z_lelblow			Z_lelbtop			Z_lwrext			Z_lwrtop			Z_lwrlow			Z_rtopleg			Z_ltopleg			Z_rkneefr			Z_rkneebk			Z_rkneeis			Z_lkneefr			Z_lknssbk			Z_lkneeis			Z_rankfr			Z_rankis			Z_rankbk			Z_lankfr			Z_lankbk			Z_lankis			N_lasi			N_rasi			N_rpsi			N_lpsi			N_fneck			N_bneck			N_fhead			N_rhead			N_lhead			N_rshld			N_relbtop			N_relbext			N_relblow			N_rwrext			N_rwrtop			N_rwrlow			N_lshld			N_lelbext			N_lelblow			N_lelbtop			N_lwrext			N_lwrtop			N_lwrlow			N_rtopleg			N_ltopleg			N_rkneefr			N_rkneebk			N_rkneeis			N_lkneefr			N_lknssbk			N_lkneeis			N_rankfr			N_rankis			N_rankbk			N_lankfr			N_lankbk			N_lankis			
		X1	Y1	Z1	X2	Y2	Z2	X3	Y3	Z3	X4	Y4	Z4	X5	Y5	Z5	X6	Y6	Z6	X7	Y7	Z7	X8	Y8	Z8	X9	Y9	Z9	X10	Y10	Z10	X11	Y11	Z11	X12	Y12	Z12	X13	Y13	Z13	X14	Y14	Z14	X15	Y15	Z15	X16	Y16	Z16	X17	Y17	Z17	X18	Y18	Z18	X19	Y19	Z19	X20	Y20	Z20	X21	Y21	Z21	X22	Y22	Z22	X23	Y23	Z23	X24	Y24	Z24	X25	Y25	Z25	X26	Y26	Z26	X27	Y27	Z27	X28	Y28	Z28	X29	Y29	Z29	X30	Y30	Z30	X31	Y31	Z31	X32	Y32	Z32	X33	Y33	Z33	X34	Y34	Z34	X35	Y35	Z35	X36	Y36	Z36	X37	Y37	Z37	X38	Y38	Z38	X39	Y39	Z39	X40	Y40	Z40	X41	Y41	Z41	X42	Y42	Z42	X43	Y43	Z43	X44	Y44	Z44	X45	Y45	Z45	X46	Y46	Z46	X47	Y47	Z47	X48	Y48	Z48	X49	Y49	Z49	X50	Y50	Z50	X51	Y51	Z51	X52	Y52	Z52	X53	Y53	Z53	X54	Y54	Z54	X55	Y55	Z55	X56	Y56	Z56	X57	Y57	Z57	X58	Y58	Z58	X59	Y59	Z59	X60	Y60	Z60	X61	Y61	Z61	X62	Y62	Z62	X63	Y63	Z63	X64	Y64	Z64	X65	Y65	Z65	X66	Y66	Z66	X67	Y67	Z67	X68	Y68	Z68	X69	Y69	Z69	X70	Y70	Z70	X71	Y71	Z71	X72	Y72	Z72	X73	Y73	Z73	X74	Y74	Z74	

179	14.567	2.55667	971.89964	377.79572	220.72092	1000.70503	471.26205	115.07382	1049.79187	641.28990	-57.81334	1029.65141	558.20911	50.55727	1429.06601	367.66674	22.23284	1507.62970	455.69912	82.85604	1552.23007	235.45065	108.50899	1629.99634	409.02122	-19.08366	1611.84174	382.82318	246.72171	1400.11429	552.87247	296.62251	1111.83395	636.87038	240.94847	1092.97142	596.63311	328.46104	1131.63483	561.81137	369.17400	867.40646	562.27566	396.32256	879.79187	528.20557	361.34697	888.09349	497.74876	-154.19517	1375.51926	383.12508	-106.49300	1053.88947	427.00542	-159.27598	1074.14284	353.76556	-177.85543	1036.01738	425.37811	-111.56637	856.56273	301.99425	-99.38039	877.51541	267.39508	-56.86339	885.83672	281.88017	253.31919	897.40372	589.73316	-69.17220	889.98451	438.52909	336.17107	444.96262	455.59719	338.29418	477.95464	538.72372	239.91644	453.60817	478.09822	80.29181	399.09710	464.14326	-3.74449	418.19569	477.76859	75.17558	435.57682	568.75359	330.39547	187.07588	535.84610	251.40553	184.57615	554.45503	300.87151	187.94693	607.01962	1.03124	150.38314	555.76469	15.47522	160.55578	620.10704	77.67006	160.28723	578.11741	-1203.29247	1021.85951	-808.06427	-1334.67300	1022.27699	-992.41135	-1123.31703	1095.57426	-1119.44313	-1018.08792	1080.49210	-902.95135	-1296.98563	1496.32385	-916.41121	-1191.70433	1574.47556	-982.39937	-1364.03687	1697.33871	-823.60886	-1333.13004	1696.81885	-999.62700	-1211.84425	1711.63773	-900.50056	-1295.39932	1458.11157	-1162.28874	-1213.10425	1174.94781	-1271.74728	-1176.39145	1160.24956	-1196.14906	-1269.26033	1172.93831	-1220.39757	-1330.53040	941.99692	-1231.96297	-1373.86490	964.95316	-1218.60054	-1366.74561	970.94383	-1172.60155	-1124.40613	1484.53674	-755.73334	-1147.39944	1144.18541	-754.70230	-1119.85237	1173.67805	-756.81213	-1076.91299	1196.79268	-694.04465	-1068.21281	940.23857	-666.82785	-1119.27322	939.20990	-649.56680	-1138.53500	931.96426	-696.18256	-1268.71910	906.83441	-1152.99591	-1082.21481	888.27950	-790.26306	-1375.50934	482.06978	-1035.51476	-1281.93115	514.35268	-1104.78767	-1266.35040	486.28525	-993.52554	-1248.82072	448.65139	-829.26384	-1159.65935	516.49666	-817.93312	-1222.02805	499.38869	-927.39868	-1318.65707	177.71730	-1074.40140	-1251.86485	184.40788	-1043.09502	-1272.13310	179.25621	-1122.02225	-969.95949	283.44709	-933.56262	-969.54697	336.08521	-1010.05745	-1015.24597	281.74324	-987.73346 
180	14.583	7.72573	970.59708	368.02025	228.98077	998.54340	455.34019	128.01069	1048.92914	628.32855	-47.04803	1029.53262	550.18593	58.81765	1427.31308	354.88415	33.00271	1506.63498	443.38921	87.16852	1550.75058	221.83422	118.41413	1628.57117	394.39735	-9.52238	1610.19348	371.06667	259.04390	1397.94708	535.84198	310.75083	1109.75197	618.44398	253.52699	1091.08986	580.29442	340.36598	1129.37653	542.98386	380.60558	865.19783	543.02704	406.72565	877.39220	507.92229	370.87425	885.62103	478.57807	-145.50487	1374.76242	375.26402	-97.51732	1052.90161	417.54135	-151.61615	1073.53668	345.76611	-168.84184	1034.97635	417.02194	-104.21077	856.60286	290.81165	-92.75819	877.92549	256.33051	-49.99681	886.34781	269.99445	264.24702	896.06224	572.97462	-61.94485	889.29031	430.93769	344.33258	444.89597	432.79202	349.50565	474.72855	517.08088	249.40283	448.91457	460.20580	82.26193	398.30917	459.93660	-1.62555	418.41908	475.17872	79.54636	435.90279	563.93551	357.93404	185.01743	496.40640	280.28849	177.15292	519.05750	332.53220	179.36098	568.80192	2.35411	150.86291	555.00042	16.88352	161.44352	619.13273	79.01774	160.25782	576.86771	-1216.85555	1029.66133	-804.09782	-1352.18307	1028.08662	-984.69940	-1144.04198	1100.26955	-1116.34407	-1033.34045	1086.11313	-902.86705	-1312.85568	1501.40915	-906.33827	-1209.58000	1579.56863	-975.09140	-1376.28662	1702.19757	-810.72372	-1351.05652	1702.06787	-987.76810	-1226.49269	1716.21414	-891.88034	-1318.70285	1465.61218	-1153.14888	-1241.38206	1183.11485	-1267.63512	-1200.55962	1168.43559	-1193.81317	-1294.83704	1179.76822	-1213.55652	-1349.64920	945.90103	-1226.40976	-1393.41293	967.12921	-1211.67580	-1385.52933	973.03391	-1165.69771	-1135.07889	1488.12759	-751.41167	-1149.94560	1148.81920	-751.34926	-1123.71391	1177.28157	-752.21893	-1078.14392	1202.45667	-691.93176	-1055.33485	947.29614	-663.67729	-1104.70573	943.66364	-643.41614	-1124.39865	933.98529	-690.44861	-1286.13968	910.11551	-1147.63153	-1096.31111	895.85815	-785.58075	-1378.17291	481.65909	-1033.27965	-1285.19730	515.74863	-1102.62199	-1268.54042	487.32086	-991.74644	-1275.78712	459.38145	-812.60185	-1183.61488	522.38369	-803.68561	-1249.34761	507.99980	-911.23520	-1319.45831	178.25850	-1072.98752	-1252.60956	184.91274	-1042.20016	-1272.80014	180.16869	-1120.40985	-1008.49472	278.57826	-922.41524	-1007.40723	330.61516	-999.61082	-1055.14603	279.02788	-975.14305 
181	14.600	13.24993	969.23058	358.31520	237.46807	996.28250	439.20052	141.08603	1047.86423	615.03582	-36.18341	1029.43497	541.37337	67.20174	1425.36911	342.37564	43.86453	1505.39642	430.97862	92.38055	1548.23120	207.76684	129.25491	1626.07880	379.49425	0.28185	1608.76892	358.95226	271.37014	1395.72464	518.53340	324.09538	1107.71866	600.79323	266.32172	1088.86108	563.19164	352.23015	1127.10205	523.78593	391.74702	862.73125	523.88092	416.75697	874.79591	488.06431	380.18410	882.93320	459.60369	-136.70725	1374.15298	367.26635	-87.94395	1052.14890	407.39342	-143.74624	1072.98950	337.60773	-159.65381	1034.20486	408.75191	-97.29993	856.10100	280.74102	-86.75640	877.74200	246.11849	-43.66518	886.30692	258.72784	274.73545	894.15817	556.71486	-54.32764	889.16084	423.38467	351.44108	444.52995	410.82718	360.97137	471.53835	495.33768	258.34158	443.98975	444.14745	84.44906	397.58038	455.55611	0.65092	418.91472	472.55753	84.16319	435.93056	558.90411	382.95570	184.82170	456.66542	307.37768	171.16663	482.71248	360.55305	174.52421	530.53093	3.37834	151.05382	555.10811	18.69946	162.46078	618.26946	80.49323	160.41941	575.37720	-1229.88113	1036.63025	-799.96986	-1369.32617	1033.51097	-976.98776	-1164.05006	1104.75754	-1113.22754	-1048.13271	1091.32431	-902.63870	-1328.01483	1506.11603	-895.85770	-1227.04552	1584.33426	-967.55180	-1388.28583	1706.52924	-797.46231	-1367.89703	1707.00821	-975.14534	-1240.75867	1720.50323	-882.64427	-1341.45096	1472.75375	-1143.22571	-1268.92502	1190.94223	-1262.64908	-1224.47983	1176.46408	-1190.89378	-1319.55353	1186.28296	-1206.23413	-1368.23456	949.84917	-1220.50941	-1412.36603	969.59900	-1204.57474	-1403.87115	975.47630	-1158.72353	-1145.27954	1491.84418	-747.06764	-1151.46439	1153.75534	-748.11264	-1126.41747	1181.07681	-747.82440	-1078.47794	1208.53394	-689.85313	-1043.23288	955.31670	-660.85144	-1090.84702	949.48174	-637.76459	-1112.20253	938.17978	-683.63113	-1302.84073	913.18558	-1141.88576	-1110.21446	903.27042	-780.81787	-1380.34424	481.46187	-1031.59279	-1288.06778	517.43755	-1100.96313	-1270.11269	488.39825	-990.69771	-1300.89828	470.15324	-796.60637	-1205.21935	528.13011	-790.81070	-1274.11659	516.28479	-895.80368	-1320.27573	179.00997	-1071.78139	-1253.62778	186.01082	-1040.83092	-1273.65501	181.26694	-1119.22768	-1047.60147	272.05578	-909.32999	-1044.89540	322.95330	-987.29057	-1094.56406	275.29095	-962.52136 
182	14.617	19.41934	967.94609	348.44872	246.04662	994.02267	423.06332	154.21755	1046.55403	601.44711	-24.82990	1028.94775	532.44469	76.25088	1422.79251	329.48940	55.05127	1504.10461	418.42915	97.65124	1545.77789	193.74361	139.55874	1624.18320	364.12712	10.38433	1606.89133	346.19812	283.82772	1393.46710	501.08208	338.25611	1105.59647	583.72585	278.30868	1086.92238	546.63403	363.83183	1124.61067	505.03235	402.22393	860.23338	504.95342	426.44119	871.90941	468.46653	389.31911	880.22980	440.78403	-127.58597	1373.50464	359.13395	-78.44695	1051.41602	397.88086	-135.84033	1072.36450	329.50188	-150.04807	1033.58521	400.91537	-90.02316	855.25970	271.35288	-81.21419	877.17278	236.53158	-37.69595	885.72617	247.80014	284.98402	891.74507	540.42484	-47.46294	888.93311	415.18753	358.69671	444.33048	390.11555	371.76857	468.08666	475.54741	267.78259	439.38900	428.66310	86.52740	396.81194	451.30810	3.46148	419.23901	470.03075	88.86513	435.96016	554.19735	404.79359	186.47459	416.89240	331.75060	166.66491	444.98940	389.63223	169.13465	490.46738	4.56208	151.95817	554.40777	20.67200	163.63127	617.32826	81.97791	160.44403	574.33849	-1242.42561	1042.58148	-795.37460	-1386.09482	1038.25203	-968.97522	-1183.51273	1108.91785	-1109.63547	-1062.64969	1096.09634	-902.23175	-1342.74643	1510.29892	-885.31929	-1244.04503	1588.68073	-959.66240	-1400.17609	1710.33020	-783.03558	-1384.03992	1711.45569	-962.24960	-1254.62090	1724.40506	-873.04039	-1363.71262	1479.12140	-1132.67632	-1295.79300	1198.22182	-1257.18483	-1247.73544	1183.71689	-1187.74094	-1343.57986	1192.29042	-1198.52180	-1386.91238	953.77731	-1214.25011	-1430.92987	972.02126	-1196.90781	-1421.81046	977.86850	-1151.44913	-1154.74319	1495.19394	-742.63954	-1152.66190	1159.04655	-744.41109	-1128.84163	1185.25223	-742.48367	-1078.44887	1214.94057	-687.79060	-1031.16707	963.91106	-658.48801	-1077.53525	956.55106	-632.35378	-1097.85553	940.05196	-682.23312	-1319.11560	915.97725	-1135.90096	-1124.76089	910.36232	-774.82666	-1382.64313	481.76468	-1029.73587	-1291.52115	519.27017	-1099.90715	-1272.94258	490.08175	-988.89580	-1324.60541	480.58777	-781.37527	-1225.27245	533.43678	-777.15866	-1296.82571	523.87775	-881.30974	-1321.37970	180.05417	-1070.45273	-1254.46854	187.40896	-1040.00534	-1275.10719	182.64633	-1118.29048	-1087.18124	264.07776	-894.33418	-1082.36229	313.12962	-973.19305	-1135.85503	269.06452	-945.66063 
